<?xml version="1.0" encoding="UTF-8"?>
<svg id="Layer_2" data-name="Layer 2" xmlns="http://www.w3.org/2000/svg" viewBox="0 0 175.83 57.85">
  <defs>
    <style>
      .cls-1 {
        fill: none;
        stroke: #c4d4b3;
        stroke-miterlimit: 10;
        stroke-width: 3px;
      }

      .cls-2 {
        fill: #c4d4b3;
      }
    </style>
  </defs>
  <g id="Layer_14" data-name="Layer 14">
    <g>
      <path class="cls-2" d="M28.09,41.47v-3.11h2.89v-9.43h-2.89v-3.11h2.89v-6.27h2.85v-3.16h2.89v-3.12h5.73v3.12h2.85v3.16h2.89v6.27h2.85v3.11h-2.85v9.43h2.85v3.11h-2.85v-3.11h-2.89v3.11h-2.85v-3.11h2.85v-9.43h-11.47v9.43h2.89v3.11h-2.89v-3.11h-2.85v3.11h-2.89ZM33.83,28.93v-3.11h-2.85v3.11h2.85ZM45.3,25.81v-6.27h-2.85v-3.16h-5.73v3.16h-2.89v6.27h11.47ZM48.18,28.93v-3.11h-2.89v3.11h2.89Z"/>
      <path class="cls-2" d="M56.64,41.47v-3.11h2.89v-9.43h-2.89v-3.11h2.89v-9.43h2.85v-3.12h5.73v3.12h-5.73v9.43h2.89v3.11h-2.89v9.43h2.89v3.11h-2.89v-3.11h-2.85v3.11h-2.89ZM62.38,28.93v-3.11h-2.85v3.11h2.85Z"/>
      <path class="cls-2" d="M73.72,38.36h-2.89v-3.16h2.89v3.16h5.73v-6.27h-5.73v-3.16h-2.89v-3.11h2.89v-3.16h8.58v3.16h-8.58v3.11h5.73v3.16h2.85v6.27h-2.85v3.11h-5.73v-3.11Z"/>
      <path class="cls-2" d="M90.8,22.65h-2.89v-3.12h2.89v-3.16h2.85v3.16h2.89v3.12h-2.89v15.71h2.89v3.11h-5.73v-18.82Z"/>
      <path class="cls-2" d="M105,38.36h-2.89v-12.55h2.89v-3.16h8.58v3.16h2.89v6.27h-11.47v6.27h8.58v-3.16h2.89v3.16h-2.89v3.11h-8.58v-3.11ZM113.58,28.93v-3.11h-8.58v3.11h8.58Z"/>
      <path class="cls-2" d="M136.39,10.11v28.25h-2.89v3.11h-8.58v-3.11h-2.89v-12.55h2.89v-3.16h8.58v-12.55h2.89ZM133.5,38.36v-12.55h-8.58v12.55h8.58Z"/>
      <path class="cls-2" d="M141.96,13.26v-3.16h2.89v3.16h2.85v-3.16h2.89v3.16h-2.89v21.93h-2.85V13.26h-2.89ZM144.85,41.47v-3.11h2.85v3.11h-2.85Z"/>
    </g>
    <rect class="cls-1" x="1.5" y="1.5" width="172.83" height="54.85"/>
  </g>
</svg>