<?xml version="1.0" encoding="UTF-8"?>
<svg id="Layer_2" data-name="Layer 2" xmlns="http://www.w3.org/2000/svg" viewBox="0 0 801.98 120.78">
  <defs>
    <style>
      .cls-1 {
        fill: #5490cc;
      }

      .cls-2 {
        fill: #abdaea;
      }
    </style>
  </defs>
  <g id="Layer_3" data-name="Layer 3">
    <g>
      <path class="cls-2" d="M400.99,100.34c-5.5-20.67-21.81-36.99-42.49-42.49,20.67-5.5,36.99-21.81,42.49-42.49,5.5,20.67,21.81,36.99,42.49,42.49-20.67,5.5-36.99,21.81-42.49,42.49Z"/>
      <path class="cls-1" d="M400.99,21.89c6.27,16.53,19.44,29.69,35.97,35.97-16.53,6.27-29.69,19.44-35.97,35.97-6.27-16.53-19.44-29.69-35.97-35.97,16.53-6.27,29.69-19.44,35.97-35.97M400.99,0h0c0,31.95-25.9,57.86-57.86,57.86h0c31.95,0,57.86,25.9,57.86,57.86h0c0-31.95,25.9-57.86,57.86-57.86h0c-31.95,0-57.86-25.9-57.86-57.86h0Z"/>
    </g>
    <g>
      <path class="cls-2" d="M256.08,77.68c-2.57-9.65-10.18-17.26-19.83-19.83,9.65-2.57,17.26-10.18,19.83-19.83,2.57,9.65,10.18,17.26,19.83,19.83-9.65,2.57-17.26,10.18-19.83,19.83Z"/>
      <path class="cls-1" d="M256.08,41.07c2.93,7.71,9.07,13.86,16.78,16.78-7.71,2.93-13.86,9.07-16.78,16.78-2.93-7.71-9.07-13.86-16.78-16.78,7.71-2.93,13.86-9.07,16.78-16.78M256.08,30.86h0c0,14.91-12.09,27-27,27h0c14.91,0,27,12.09,27,27h0c0-14.91,12.09-27,27-27h0c-14.91,0-27-12.09-27-27h0Z"/>
    </g>
    <g>
      <path class="cls-2" d="M16.34,69.86c-1.55-5.84-6.16-10.45-12-12,5.84-1.55,10.45-6.16,12-12,1.55,5.84,6.16,10.45,12,12-5.84,1.55-10.45,6.16-12,12Z"/>
      <path class="cls-1" d="M16.34,47.7c1.77,4.67,5.49,8.39,10.16,10.16-4.67,1.77-8.39,5.49-10.16,10.16-1.77-4.67-5.49-8.39-10.16-10.16,4.67-1.77,8.39-5.49,10.16-10.16M16.34,41.51h0c0,9.03-7.32,16.34-16.34,16.34h0c9.03,0,16.34,7.32,16.34,16.34h0c0-9.03,7.32-16.34,16.34-16.34h0c-9.03,0-16.34-7.32-16.34-16.34h0Z"/>
    </g>
    <g>
      <path class="cls-2" d="M130.89,85.87c-3.62-13.63-14.38-24.39-28.01-28.01,13.63-3.63,24.39-14.38,28.01-28.01,3.63,13.63,14.38,24.39,28.01,28.01-13.63,3.62-24.39,14.38-28.01,28.01Z"/>
      <path class="cls-1" d="M130.89,34.14c4.14,10.9,12.82,19.58,23.71,23.71-10.9,4.14-19.58,12.82-23.71,23.71-4.14-10.9-12.82-19.58-23.71-23.71,10.9-4.14,19.58-12.82,23.71-23.71M130.89,19.71h0c0,21.07-17.08,38.15-38.15,38.15h0c21.07,0,38.15,17.08,38.15,38.15h0c0-21.07,17.08-38.15,38.15-38.15h0c-21.07,0-38.15-17.08-38.15-38.15h0Z"/>
    </g>
    <g>
      <path class="cls-2" d="M545.9,77.68c2.57-9.65,10.18-17.26,19.83-19.83-9.65-2.57-17.26-10.18-19.83-19.83-2.57,9.65-10.18,17.26-19.83,19.83,9.65,2.57,17.26,10.18,19.83,19.83Z"/>
      <path class="cls-1" d="M545.9,41.07c-2.93,7.71-9.07,13.86-16.78,16.78,7.71,2.93,13.86,9.07,16.78,16.78,2.93-7.71,9.07-13.86,16.78-16.78-7.71-2.93-13.86-9.07-16.78-16.78M545.9,30.86h0c0,14.91,12.09,27,27,27h0c-14.91,0-27,12.09-27,27h0c0-14.91-12.09-27-27-27h0c14.91,0,27-12.09,27-27h0Z"/>
    </g>
    <g>
      <path class="cls-2" d="M785.63,69.86c1.55-5.84,6.16-10.45,12-12-5.84-1.55-10.45-6.16-12-12-1.55,5.84-6.16,10.45-12,12,5.84,1.55,10.45,6.16,12,12Z"/>
      <path class="cls-1" d="M785.63,47.7c-1.77,4.67-5.49,8.39-10.16,10.16,4.67,1.77,8.39,5.49,10.16,10.16,1.77-4.67,5.49-8.39,10.16-10.16-4.67-1.77-8.39-5.49-10.16-10.16M785.63,41.51h0c0,9.03,7.32,16.34,16.34,16.34h0c-9.03,0-16.34,7.32-16.34,16.34h0c0-9.03-7.32-16.34-16.34-16.34h0c9.03,0,16.34-7.32,16.34-16.34h0Z"/>
    </g>
    <g>
      <path class="cls-2" d="M671.09,85.87c3.62-13.63,14.38-24.39,28.01-28.01-13.63-3.63-24.39-14.38-28.01-28.01-3.63,13.63-14.38,24.39-28.01,28.01,13.63,3.62,24.39,14.38,28.01,28.01Z"/>
      <path class="cls-1" d="M671.09,34.14c-4.14,10.9-12.82,19.58-23.71,23.71,10.9,4.14,19.58,12.82,23.71,23.71,4.14-10.9,12.82-19.58,23.71-23.71-10.9-4.14-19.58-12.82-23.71-23.71M671.09,19.71h0c0,21.07,17.08,38.15,38.15,38.15h0c-21.07,0-38.15,17.08-38.15,38.15h0c0-21.07-17.08-38.15-38.15-38.15h0c21.07,0,38.15-17.08,38.15-38.15h0Z"/>
    </g>
    <g>
      <circle class="cls-2" cx="331.82" cy="23.98" r="8.69"/>
      <path class="cls-1" d="M331.82,33.32c-5.15,0-9.34-4.19-9.34-9.34s4.19-9.34,9.34-9.34,9.34,4.19,9.34,9.34-4.19,9.34-9.34,9.34ZM331.82,15.95c-4.43,0-8.04,3.61-8.04,8.04s3.61,8.04,8.04,8.04,8.04-3.61,8.04-8.04-3.61-8.04-8.04-8.04Z"/>
    </g>
    <g>
      <circle class="cls-2" cx="486.94" cy="105.88" r="4.27"/>
      <path class="cls-1" d="M486.94,110.47c-2.53,0-4.59-2.06-4.59-4.59s2.06-4.59,4.59-4.59,4.59,2.06,4.59,4.59-2.06,4.59-4.59,4.59ZM486.94,101.93c-2.18,0-3.95,1.77-3.95,3.95s1.77,3.95,3.95,3.95,3.95-1.77,3.95-3.95-1.77-3.95-3.95-3.95Z"/>
    </g>
    <g>
      <circle class="cls-2" cx="609.28" cy="24.78" r="4.71"/>
      <path class="cls-1" d="M609.28,29.84c-2.79,0-5.07-2.27-5.07-5.07s2.27-5.07,5.07-5.07,5.07,2.27,5.07,5.07-2.27,5.07-5.07,5.07ZM609.28,20.41c-2.4,0-4.36,1.96-4.36,4.36s1.96,4.36,4.36,4.36,4.36-1.96,4.36-4.36-1.96-4.36-4.36-4.36Z"/>
    </g>
    <g>
      <circle class="cls-2" cx="703.49" cy="111.33" r="8.79"/>
      <path class="cls-1" d="M703.49,120.78c-5.21,0-9.45-4.24-9.45-9.45s4.24-9.45,9.45-9.45,9.45,4.24,9.45,9.45-4.24,9.45-9.45,9.45ZM703.49,103.2c-4.48,0-8.13,3.65-8.13,8.13s3.65,8.13,8.13,8.13,8.13-3.65,8.13-8.13-3.65-8.13-8.13-8.13Z"/>
    </g>
    <g>
      <circle class="cls-2" cx="310.1" cy="105.41" r="4.71"/>
      <path class="cls-1" d="M310.1,110.47c-2.79,0-5.06-2.27-5.06-5.06s2.27-5.06,5.06-5.06,5.06,2.27,5.06,5.06-2.27,5.06-5.06,5.06ZM310.1,101.05c-2.4,0-4.36,1.95-4.36,4.36s1.95,4.36,4.36,4.36,4.36-1.95,4.36-4.36-1.95-4.36-4.36-4.36Z"/>
    </g>
    <g>
      <circle class="cls-2" cx="172.38" cy="27.41" r="3.11"/>
      <path class="cls-1" d="M172.38,30.76c-1.85,0-3.35-1.5-3.35-3.35s1.5-3.35,3.35-3.35,3.35,1.5,3.35,3.35-1.5,3.35-3.35,3.35ZM172.38,24.53c-1.59,0-2.88,1.29-2.88,2.88s1.29,2.88,2.88,2.88,2.88-1.29,2.88-2.88-1.29-2.88-2.88-2.88Z"/>
    </g>
    <g>
      <circle class="cls-2" cx="63.37" cy="92.6" r="5.84"/>
      <path class="cls-1" d="M63.37,98.89c-3.46,0-6.28-2.82-6.28-6.28s2.82-6.28,6.28-6.28,6.28,2.82,6.28,6.28-2.82,6.28-6.28,6.28ZM63.37,87.2c-2.98,0-5.41,2.43-5.41,5.41s2.43,5.41,5.41,5.41,5.41-2.43,5.41-5.41-2.43-5.41-5.41-5.41Z"/>
    </g>
  </g>
</svg>